<?xml version="1.0" standalone="no"?>
<!DOCTYPE svg PUBLIC "-//W3C//DTD SVG 20010904//EN"
 "http://www.w3.org/TR/2001/REC-SVG-20010904/DTD/svg10.dtd">
<svg version="1.0" xmlns="http://www.w3.org/2000/svg"
 width="1500.000000pt" height="1500.000000pt" viewBox="0 0 1500.000000 1500.000000"
 preserveAspectRatio="xMidYMid meet">

<g transform="translate(0.000000,1500.000000) scale(0.100000,-0.100000)"
fill="#000000" stroke="none">
<path d="M740 10530 c0 -22 -4 -40 -10 -40 -7 0 -10 -1007 -10 -3000 l0 -3000
430 0 430 0 0 1350 0 1350 953 0 c599 0 984 4 1037 10 301 37 451 151 522 395
l23 80 0 1190 c0 1115 -1 1195 -18 1268 -51 214 -176 342 -390 397 -148 37
-251 40 -1629 40 l-1338 0 0 -40z m2399 -771 c58 -12 94 -37 119 -82 16 -30
17 -91 17 -802 l0 -770 -23 -36 c-28 -45 -75 -69 -161 -80 -36 -5 -391 -8
-788 -9 l-723 0 0 895 0 895 755 0 c499 0 771 -4 804 -11z"/>
<path d="M4720 9133 c0 -1586 -3 -1509 63 -1648 75 -157 220 -247 451 -280 84
-12 338 -15 1484 -15 l1382 0 0 1690 0 1690 -420 0 -420 0 -2 -1292 -3 -1293
-770 0 c-822 0 -819 0 -874 49 -53 47 -51 -9 -51 1311 l0 1225 -420 0 -420 0
0 -1437z"/>
<path d="M8770 8880 l0 -1690 420 0 420 0 0 1290 0 1290 420 0 420 0 0 400 0
400 -840 0 -840 0 0 -1690z"/>
<path d="M11545 10563 c-229 -18 -374 -71 -476 -172 -66 -67 -103 -134 -130
-239 -18 -72 -19 -121 -19 -1258 0 -1307 -2 -1273 63 -1409 56 -116 162 -203
302 -249 140 -45 170 -46 1633 -46 l1382 0 0 395 0 394 -1197 3 -1198 3 -49
25 c-88 44 -91 52 -94 276 l-3 194 1271 0 1271 0 -4 798 c-4 889 -2 866 -74
1005 -86 165 -242 248 -518 276 -98 10 -2043 14 -2160 4z m1777 -804 c71 -16
111 -56 127 -127 6 -29 11 -120 11 -202 l0 -150 -850 0 -850 0 0 180 c0 161 2
185 20 220 21 42 55 64 117 79 59 14 1361 13 1425 0z"/>
<path d="M2290 6500 l0 -190 190 0 190 0 0 190 0 190 -190 0 -190 0 0 -190z"/>
<path d="M8450 6500 l0 -190 195 0 195 0 0 190 0 190 -195 0 -195 0 0 -190z"/>
<path d="M2290 5290 l0 -780 190 0 190 0 0 780 0 780 -190 0 -190 0 0 -780z"/>
<path d="M2980 5291 l0 -781 195 0 195 0 0 595 0 596 370 -3 c369 -3 369 -3
392 -26 l23 -23 3 -569 3 -570 190 0 190 0 -3 688 c-3 685 -3 687 -25 728 -30
56 -83 100 -145 120 -48 16 -121 18 -720 22 l-668 3 0 -780z"/>
<path d="M4840 5290 l0 -781 463 4 c339 2 472 6 500 16 57 18 113 75 148 147
26 55 469 1364 469 1386 0 5 -91 7 -202 6 l-203 -3 -190 -567 c-154 -461 -196
-573 -218 -595 l-27 -28 -176 0 -176 0 -2 595 -1 595 -192 3 -193 2 0 -780z"/>
<path d="M6857 6060 c-106 -10 -181 -48 -219 -110 -45 -73 -50 -157 -45 -728
3 -389 7 -516 17 -545 20 -56 73 -111 132 -138 l53 -24 580 0 580 0 65 32 c78
39 108 79 127 166 16 78 18 1027 3 1127 -23 140 -98 203 -265 220 -104 11
-912 11 -1028 0z m889 -393 l25 -29 -3 -359 c-3 -358 -3 -359 -26 -381 l-23
-23 -337 0 c-362 0 -374 2 -392 51 -6 14 -10 175 -10 368 0 329 1 344 20 369
11 14 30 28 43 30 12 3 170 4 350 3 l329 -1 24 -28z"/>
<path d="M8450 5290 l0 -780 195 0 195 0 0 780 0 780 -195 0 -195 0 0 -780z"/>
<path d="M9388 6059 c-140 -15 -224 -80 -248 -193 -7 -36 -10 -233 -8 -607 l3
-554 26 -56 c27 -57 55 -83 124 -115 38 -18 81 -19 723 -22 l682 -3 0 180 0
180 -561 3 -561 3 -24 28 -24 28 0 355 c0 213 4 363 10 374 20 38 56 40 616
40 l544 0 0 185 0 185 -612 -1 c-337 -1 -648 -5 -690 -10z"/>
<path d="M11169 6059 c-121 -13 -188 -51 -232 -133 -22 -41 -22 -41 -22 -641
0 -595 0 -600 22 -640 28 -52 57 -79 118 -107 l50 -23 683 -3 682 -3 0 180 0
180 -557 3 c-307 2 -566 7 -576 12 -29 14 -39 44 -45 133 l-5 83 592 0 591 0
0 358 c0 290 -3 369 -15 417 -31 118 -101 168 -257 185 -110 11 -919 11 -1029
-1z m858 -369 c41 -15 53 -47 53 -141 l0 -79 -392 2 -393 3 1 87 c1 94 13 122
58 131 49 10 644 7 673 -3z"/>
<path d="M13010 6060 c-89 -9 -153 -34 -197 -80 -57 -59 -63 -93 -63 -387 0
-313 4 -338 69 -403 80 -79 94 -81 610 -87 l444 -5 24 -24 c19 -19 23 -34 23
-83 0 -49 -4 -65 -24 -88 l-24 -28 -561 -3 -561 -3 0 -180 0 -180 683 3 682 3
58 29 c44 21 66 40 88 73 45 72 51 127 47 406 -3 214 -6 258 -21 292 -30 67
-80 110 -161 138 -19 7 -208 13 -488 16 l-457 6 -23 23 c-19 19 -23 33 -23 87
0 54 4 68 23 87 l23 23 564 3 565 3 0 184 0 185 -612 -1 c-337 -1 -647 -5
-688 -9z"/>
</g>
</svg>
